<mxfile host="app.diagrams.net" modified="2023-08-23T03:46:15.890Z" agent="Mozilla/5.0 (Windows NT 10.0; Win64; x64) AppleWebKit/537.36 (KHTML, like Gecko) Chrome/105.0.0.0 Safari/537.36" version="21.6.9" etag="Ktf81ecjIAuR32pQk7Mg" type="github">
  <diagram name="第 1 页" id="xt0keLi-GDPO0vbypIlI">
    <mxGraphModel>
      <root>
        <mxCell id="0" />
        <mxCell id="1" parent="0" />
      </root>
    </mxGraphModel>
  </diagram>
</mxfile>
